<svg width="288" height="130" viewBox="0 0 288 130" fill="none" xmlns="http://www.w3.org/2000/svg">
<path d="M63.5325 120.839C65.4588 120.839 67.0203 119.647 67.0203 118.178C67.0203 116.708 65.4588 115.517 63.5325 115.517C61.6063 115.517 60.0448 116.708 60.0448 118.178C60.0448 119.647 61.6063 120.839 63.5325 120.839Z" fill="#BAC6F2"/>
<path d="M16.322 130C18.2483 130 19.8098 128.809 19.8098 127.339C19.8098 125.87 18.2483 124.678 16.322 124.678C14.3958 124.678 12.8343 125.87 12.8343 127.339C12.8343 128.809 14.3958 130 16.322 130Z" fill="#BAC6F2"/>
<path d="M109.946 95.0492C111.873 95.0492 113.434 93.8579 113.434 92.3884C113.434 90.9188 111.873 89.7275 109.946 89.7275C108.02 89.7275 106.459 90.9188 106.459 92.3884C106.459 93.8579 108.02 95.0492 109.946 95.0492Z" fill="#BAC6F2"/>
<path d="M88.4994 68.6659C90.4256 68.6659 91.9871 67.4746 91.9871 66.0051C91.9871 64.5355 90.4256 63.3442 88.4994 63.3442C86.5732 63.3442 85.0117 64.5355 85.0117 66.0051C85.0117 67.4746 86.5732 68.6659 88.4994 68.6659Z" fill="#BAC6F2"/>
<path d="M133.07 49.9931C134.996 49.9931 136.558 48.8018 136.558 47.3322C136.558 45.8627 134.996 44.6714 133.07 44.6714C131.144 44.6714 129.582 45.8627 129.582 47.3322C129.582 48.8018 131.144 49.9931 133.07 49.9931Z" fill="#BAC6F2"/>
<path d="M182.652 74.3763C184.578 74.3763 186.14 73.185 186.14 71.7155C186.14 70.246 184.578 69.0547 182.652 69.0547C180.726 69.0547 179.164 70.246 179.164 71.7155C179.164 73.185 180.726 74.3763 182.652 74.3763Z" fill="#BAC6F2"/>
<path d="M206.476 95.5033C208.402 95.5033 209.964 94.312 209.964 92.8425C209.964 91.3729 208.402 90.1816 206.476 90.1816C204.55 90.1816 202.988 91.3729 202.988 92.8425C202.988 94.312 204.55 95.5033 206.476 95.5033Z" fill="#BAC6F2"/>
<path d="M228.849 49.7045C230.775 49.7045 232.336 48.5132 232.336 47.0436C232.336 45.5741 230.775 44.3828 228.849 44.3828C226.922 44.3828 225.361 45.5741 225.361 47.0436C225.361 48.5132 226.922 49.7045 228.849 49.7045Z" fill="#BAC6F2"/>
<path d="M266.116 128.326C268.043 128.326 269.604 127.134 269.604 125.665C269.604 124.195 268.043 123.004 266.116 123.004C264.19 123.004 262.629 124.195 262.629 125.665C262.629 127.134 264.19 128.326 266.116 128.326Z" fill="#BAC6F2"/>
<path d="M158.238 121.043C160.164 121.043 161.726 119.852 161.726 118.383C161.726 116.913 160.164 115.722 158.238 115.722C156.312 115.722 154.75 116.913 154.75 118.383C154.75 119.852 156.312 121.043 158.238 121.043Z" fill="#BAC6F2"/>
<path d="M55.9668 46.806C63.0598 46.806 68.8098 42.4192 68.8098 37.008C68.8098 31.5967 63.0598 27.21 55.9668 27.21C48.8739 27.21 43.1239 31.5967 43.1239 37.008C43.1239 42.4192 48.8739 46.806 55.9668 46.806Z" fill="white"/>
<path d="M68.7964 44.8001C73.9201 44.8001 78.0737 41.6313 78.0737 37.7223C78.0737 33.8134 73.9201 30.6445 68.7964 30.6445C63.6726 30.6445 59.519 33.8134 59.519 37.7223C59.519 41.6313 63.6726 44.8001 68.7964 44.8001Z" fill="white"/>
<path d="M208.558 33.2645C215.651 33.2645 221.401 28.8777 221.401 23.4665C221.401 18.0552 215.651 13.6685 208.558 13.6685C201.465 13.6685 195.715 18.0552 195.715 23.4665C195.715 28.8777 201.465 33.2645 208.558 33.2645Z" fill="white"/>
<path d="M221.388 31.2586C226.511 31.2586 230.665 28.0898 230.665 24.1808C230.665 20.2719 226.511 17.103 221.388 17.103C216.264 17.103 212.11 20.2719 212.11 24.1808C212.11 28.0898 216.264 31.2586 221.388 31.2586Z" fill="white"/>
<path d="M251.932 68.5982L258.309 61.6391C259.009 60.6996 260.955 60.7815 261.902 61.5859L268.171 68.1356C269.465 69.2327 268.78 71.2774 266.849 71.302L254.17 71.4637C253.727 71.4676 253.291 71.3827 252.904 71.2175C252.518 71.0524 252.196 70.8127 251.969 70.5225C251.743 70.2323 251.62 69.9019 251.613 69.5641C251.607 69.2264 251.717 68.8933 251.932 68.5982Z" fill="#BAC6F2"/>
<path d="M24.4136 73.443L18.0257 80.3878C17.3227 81.3273 15.3777 81.2433 14.4333 80.4389L8.17413 73.8769C6.88367 72.7778 7.57048 70.733 9.51557 70.7105L22.1948 70.5611C22.639 70.5581 23.0764 70.6445 23.463 70.8115C23.8495 70.9786 24.1715 71.2204 24.3964 71.5126C24.6214 71.8049 24.7415 72.1372 24.7445 72.4761C24.7475 72.815 24.6334 73.1485 24.4136 73.443Z" fill="#BAC6F2"/>
</svg>
