<svg width="314" height="214" viewBox="0 0 314 214" fill="none" xmlns="http://www.w3.org/2000/svg">
<g filter="url(#filter0_b)">
<path d="M280.335 214.166C296.797 214.166 310.142 211.41 310.142 208.01C310.142 204.61 296.797 201.854 280.335 201.854C263.873 201.854 250.528 204.61 250.528 208.01C250.528 211.41 263.873 214.166 280.335 214.166Z" fill="#E6E6E6"/>
<path d="M279.945 50.6076V58.6604L284.631 69.1641L292.051 57.2599V48.1567L279.945 50.6076Z" fill="#A0616A"/>
<path d="M259.051 113.104L257.88 120.807C257.88 120.807 255.146 129.21 259.051 129.21C262.956 129.21 262.956 120.107 262.956 120.107L263.737 114.855L259.051 113.104Z" fill="#A0616A"/>
<path d="M306.305 112.054L305.133 119.757C305.133 119.757 302.399 128.16 306.305 128.16C310.21 128.16 310.21 119.057 310.21 119.057L310.991 113.805L306.305 112.054Z" fill="#A0616A"/>
<path d="M270.181 104.177L268.343 104.632C268.343 104.632 263.542 132.537 263.152 147.242C262.761 161.947 261.98 199.06 261.98 199.06H274.477L282.678 136.038L286.583 199.06H299.861C299.861 199.06 305.328 116.431 301.814 109.779C298.299 103.126 270.181 104.177 270.181 104.177Z" fill="#2F2E41"/>
<path d="M262.761 198.359L259.246 203.261C259.246 203.261 249.483 210.614 258.075 210.264C266.666 209.913 270.181 206.412 270.181 206.412V207.463L274.867 206.062L274.086 198.359H262.761Z" fill="#2F2E41"/>
<path d="M298.69 198.359L302.204 203.261C302.204 203.261 311.967 210.614 303.376 210.264C294.784 209.913 291.27 206.412 291.27 206.412V207.463L286.583 206.062L287.364 198.359H298.69Z" fill="#2F2E41"/>
<path d="M284.826 52.5329C289.571 52.5329 293.418 49.0842 293.418 44.8301C293.418 40.5761 289.571 37.1274 284.826 37.1274C280.081 37.1274 276.235 40.5761 276.235 44.8301C276.235 49.0842 280.081 52.5329 284.826 52.5329Z" fill="#A0616A"/>
<path d="M284.24 63.9124L279.945 56.0262L277.992 60.061L277.211 94.7231L295.175 58.6605L292.051 55.563L284.24 63.9124Z" fill="#575A89"/>
<path d="M308.062 65.6628L293.822 57.3193C293.822 57.3193 292.832 65.3126 283.849 64.6124C274.867 63.9121 279.065 57.8403 279.065 57.8403L264.714 64.9625L270.181 92.2721L267.838 108.028C267.838 108.028 288.926 105.927 293.613 109.078C296.349 110.948 299.577 112.153 302.985 112.579L302.204 85.6197L308.062 65.6628Z" fill="#D1D1D1"/>
<path d="M303.766 67.0636L306.468 64.729L308.453 66.0133C308.453 66.0133 310.405 68.114 311.967 74.4162C313.529 80.7184 312.748 108.728 312.748 108.728L304.157 107.678L304.547 96.1238L301.033 80.7184L303.766 67.0636Z" fill="#D1D1D1"/>
<path d="M267.447 64.6124L265.972 64.3379L264.714 64.9625C264.714 64.9625 261.199 69.164 261.199 73.0153C261.199 76.8667 257.684 109.778 257.684 109.778L265.495 112.929L270.962 88.0706L267.447 64.6124Z" fill="#D1D1D1"/>
<path d="M313.92 109.428C313.92 109.428 306.109 105.227 303.376 108.028C300.642 110.829 304.938 113.63 304.938 113.63C304.938 113.63 317.044 117.831 313.92 109.428Z" fill="#575A89"/>
<path d="M266.276 111.529C266.276 111.529 258.465 107.327 255.732 110.128C252.998 112.929 257.294 115.73 257.294 115.73C257.294 115.73 269.4 119.932 266.276 111.529Z" fill="#575A89"/>
<path d="M292.35 39.1827C292.35 39.1827 294.597 35.3314 289.653 34.9813C289.653 34.9813 285.159 32.5304 281.564 35.3314C281.564 35.3314 278.418 34.6311 277.519 36.7319C277.519 36.7319 277.069 35.6815 278.417 34.9813C278.417 34.9813 275.271 34.281 275.271 37.7822C275.271 37.7822 273.922 41.2835 275.271 44.4346C276.619 47.5857 277.067 47.9358 277.067 47.9358C277.067 47.9358 274.851 41.3293 280.245 40.9792C285.638 40.6291 291.674 37.6072 292.124 41.4585C292.573 45.3099 293.472 46.3603 293.472 46.3603C293.472 46.3603 297.519 40.7583 292.35 39.1827Z" fill="#2F2E41"/>
<path d="M104.939 184.063H104.885C102.888 184.063 100.867 184.01 98.8781 183.904L98.9078 183.454C100.887 183.559 102.899 183.612 104.886 183.612H104.939L104.939 184.063ZM111.001 183.898L110.971 183.448C112.972 183.341 114.993 183.177 116.98 182.962L117.041 183.41C115.044 183.626 113.012 183.791 111.003 183.899L111.001 183.898ZM92.8379 183.422C90.8384 183.207 88.8205 182.936 86.841 182.614L86.9308 182.17C88.9002 182.49 90.9079 182.76 92.8976 182.975L92.8379 183.422ZM123.036 182.596L122.946 182.152C124.916 181.83 126.901 181.448 128.845 181.019L128.966 181.457C127.013 181.888 125.017 182.271 123.036 182.596L123.036 182.596ZM80.9097 181.48C78.9543 181.051 76.988 180.561 75.0658 180.026L75.2154 179.595C77.129 180.128 79.0844 180.614 81.0299 181.042L80.9097 181.48ZM134.808 179.997L134.658 179.566C136.568 179.033 138.485 178.439 140.36 177.8L140.539 178.222C138.655 178.864 136.727 179.462 134.808 179.998V179.997ZM69.3204 178.253C67.4373 177.614 65.5491 176.913 63.7082 176.171L63.9148 175.759C65.7464 176.498 67.6248 177.194 69.4993 177.831L69.3204 178.253ZM146.132 176.142L145.925 175.73C147.748 174.995 149.57 174.196 151.341 173.36L151.575 173.76C149.796 174.6 147.964 175.402 146.132 176.143V176.142ZM58.2491 173.786C56.4636 172.945 54.6851 172.045 52.9625 171.11L53.223 170.724C54.937 171.655 56.7065 172.551 58.483 173.387L58.2491 173.786ZM156.851 171.088L156.59 170.703C158.302 169.773 160.005 168.784 161.651 167.763L161.937 168.135C160.282 169.159 158.569 170.153 156.851 171.088ZM47.8693 168.154C46.2111 167.127 44.567 166.041 42.9827 164.928L43.2951 164.572C44.8712 165.681 46.5072 166.76 48.1571 167.783L47.8693 168.154ZM166.817 164.91L166.505 164.554C168.085 163.443 169.643 162.278 171.137 161.088L171.472 161.426C169.97 162.619 168.403 163.791 166.815 164.908L166.817 164.91ZM38.3225 161.443C36.8147 160.246 35.3284 158.993 33.9049 157.717L34.2607 157.398C35.6771 158.667 37.156 159.914 38.656 161.106L38.3225 161.443ZM175.888 157.697L175.532 157.378C176.951 156.106 178.344 154.781 179.672 153.439L180.048 153.739C178.714 155.088 177.315 156.419 175.889 157.697H175.888ZM29.7458 153.759C28.4087 152.408 27.1012 151.004 25.8597 149.586L26.2553 149.306C27.4909 150.716 28.7937 152.113 30.1215 153.458L29.7458 153.759ZM183.933 149.566L183.537 149.286C184.777 147.869 185.982 146.403 187.12 144.929L187.533 145.185C186.391 146.669 185.179 148.142 183.933 149.566ZM22.2591 145.216C21.1129 143.732 20.003 142.198 18.9615 140.658L19.3911 140.424C20.4279 141.957 21.5319 143.482 22.6715 144.96L22.2591 145.216ZM190.835 140.621L190.405 140.387C191.445 138.849 192.445 137.263 193.378 135.673L193.823 135.883C192.884 137.48 191.881 139.074 190.835 140.621ZM15.9767 135.931C15.0394 134.335 14.1447 132.694 13.3176 131.052L13.7761 130.866C14.5993 132.5 15.4893 134.133 16.4219 135.72L15.9767 135.931ZM196.485 130.989L196.025 130.804C196.852 129.158 197.631 127.476 198.34 125.797L198.811 125.957C198.097 127.643 197.315 129.336 196.484 130.988L196.485 130.989ZM10.9936 126.04C10.2774 124.352 9.60997 122.624 9.01012 120.902L9.49047 120.767C10.0876 122.48 10.7515 124.2 11.4638 125.879L10.9936 126.04ZM200.793 120.809L200.312 120.675C200.907 118.959 201.451 117.206 201.928 115.463L202.417 115.57C201.937 117.322 201.391 119.085 200.793 120.808V120.809ZM7.37929 115.664C6.89739 113.914 6.46937 112.126 6.10657 110.349L6.60176 110.267C6.96299 112.035 7.38906 113.815 7.86823 115.556L7.37929 115.664ZM203.684 110.253L203.188 110.172C203.546 108.406 203.849 106.607 204.086 104.823L204.586 104.877C204.348 106.669 204.043 108.479 203.684 110.253V110.253ZM5.19547 104.974C4.95374 103.184 4.76941 101.363 4.64874 99.5595L5.15095 99.5322C5.27202 101.326 5.45557 103.139 5.69769 104.919L5.19547 104.974ZM205.129 99.4622L204.627 99.4356C204.744 97.6451 204.806 95.8262 204.806 94.0283V93.8375H205.309V94.0283C205.309 95.8349 205.249 97.6629 205.129 99.4622ZM4.9639 94.1242H4.46051V94.0287C4.46051 92.2532 4.5187 90.4574 4.6339 88.6907L5.13612 88.7173C5.02169 90.4753 4.9635 92.2623 4.9635 94.029L4.9639 94.1242ZM204.614 88.4302C204.49 86.6344 204.305 84.8218 204.062 83.0436L204.562 82.9889C204.806 84.7763 204.992 86.5977 205.116 88.4025L204.614 88.4302ZM5.66919 83.3289L5.16931 83.2757C5.40753 81.4831 5.70941 79.674 6.06752 77.8989L6.56309 77.979C6.20654 79.7454 5.90584 81.5454 5.66919 83.3289ZM203.149 77.6965C202.785 75.9259 202.357 74.1466 201.876 72.4096L202.364 72.3011C202.848 74.0482 203.278 75.8373 203.644 77.6156L203.149 77.6965ZM7.81707 72.6866L7.32813 72.5795C7.80574 70.8288 8.35014 69.0642 8.94647 67.3395L9.4272 67.4729C8.83399 69.1885 8.29234 70.943 7.81746 72.6866H7.81707ZM200.247 67.1998C199.649 65.4863 198.983 63.7669 198.268 62.088L198.737 61.9273C199.455 63.6132 200.125 65.3414 200.729 67.0636L200.247 67.1998ZM11.3923 62.3475L10.9214 62.1878C11.6341 60.4988 12.4147 58.8056 13.2418 57.1548L13.7011 57.34C12.8779 58.9824 12.1011 60.6672 11.3923 62.3475ZM195.95 57.104C195.126 55.4711 194.232 53.8388 193.298 52.2524L193.744 52.0423C194.683 53.6364 195.579 55.2771 196.409 56.9185L195.95 57.104ZM16.3438 52.4695L15.8978 52.2594C16.8319 50.6625 17.8352 49.0673 18.8799 47.5184L19.3094 47.7519C18.2718 49.2935 17.2736 50.8806 16.3438 52.4695ZM190.323 47.552C189.284 46.0213 188.178 44.4961 187.036 43.0196L187.45 42.7623C188.598 44.2465 189.709 45.779 190.753 47.3178L190.323 47.552ZM22.5883 43.2052L22.1739 42.9486C23.3166 41.4644 24.5265 39.99 25.7695 38.5661L26.1659 38.8441C24.9314 40.2614 23.7263 41.7284 22.5883 43.2052ZM183.449 38.6711C182.209 37.2594 180.906 35.8638 179.577 34.5229L179.954 34.2232C181.289 35.5701 182.598 36.9727 183.845 38.3921L183.449 38.6711ZM30.0301 34.686L29.6533 34.3867C30.9873 33.0352 32.3869 31.7019 33.8073 30.4247L34.1638 30.7433C32.7482 32.0146 31.3575 33.3409 30.0301 34.686ZM175.436 30.5896C174.014 29.3193 172.533 28.0729 171.036 26.8856L171.369 26.5478C172.874 27.741 174.362 28.9934 175.791 30.2703L175.436 30.5896ZM38.5526 27.0302L38.2183 26.6927C39.7206 25.496 41.2858 24.3231 42.8702 23.2062L43.1826 23.5609C41.6068 24.6722 40.0479 25.8395 38.5526 27.0302ZM166.395 23.424C164.818 22.3176 163.181 21.2392 161.529 20.2186L161.815 19.8471C163.475 20.8726 165.12 21.9566 166.705 23.0683L166.395 23.424ZM48.0329 20.3471L47.7463 19.976C49.4006 18.9484 51.1103 17.9526 52.8294 17.0171L53.0906 17.4022C51.3805 18.3332 49.679 19.324 48.0329 20.3468V20.3471ZM156.456 17.2818C154.737 16.3519 152.967 15.458 151.193 14.6244L151.427 14.2245C153.21 15.0624 154.99 15.9608 156.717 16.8952L156.456 17.2818ZM58.335 14.7385L58.1007 14.3394C59.8795 13.4991 61.7099 12.6938 63.5411 11.9526L63.7484 12.3636C61.9262 13.1024 60.1052 13.9014 58.3358 14.7385H58.335ZM145.76 12.2582C143.928 11.523 142.05 10.8259 140.173 10.1925L140.351 9.77025C142.236 10.4082 144.125 11.107 145.966 11.8479L145.76 12.2582ZM69.3107 10.2891L69.1314 9.86899C71.0145 9.22581 72.9426 8.62675 74.862 8.08826L75.0123 8.51891C73.1011 9.05285 71.1829 9.64911 69.3095 10.2891H69.3107ZM134.455 8.43348C132.541 7.9027 130.584 7.41813 128.638 6.99273L128.758 6.55438C130.711 6.98153 132.679 7.46889 134.603 8.00248L134.455 8.43348ZM80.8226 7.061L80.7015 6.623C82.6565 6.18955 84.6513 5.80476 86.6301 5.47915L86.7211 5.9231C84.7524 6.24697 82.7678 6.63 80.8241 7.06135L80.8226 7.061ZM122.736 5.87059C120.769 5.55233 118.761 5.28343 116.768 5.07195L116.827 4.6238C118.83 4.83632 120.848 5.10627 122.825 5.42628L122.736 5.87059ZM92.6856 5.10627L92.6246 4.65811C94.6198 4.44034 96.6513 4.27298 98.6633 4.16374L98.6938 4.61399C96.6919 4.72358 94.6714 4.88884 92.6856 5.10416V5.10627ZM110.757 4.59789C108.813 4.49705 106.838 4.44594 104.885 4.44594H104.725V3.99463H104.885C106.847 3.99463 108.833 4.0461 110.786 4.14763L110.757 4.59789Z" fill="#3F3B56"/>
<path d="M206.209 151.134H146.532V191.262H206.209V151.134Z" fill="#6C63FF"/>
<path d="M198.749 161.835H153.991V164.51H198.749V161.835Z" fill="white"/>
<path d="M198.749 169.86H153.991V172.536H198.749V169.86Z" fill="white"/>
<path d="M198.749 177.886H153.991V180.562H198.749V177.886Z" fill="white"/>
<path d="M44.9731 0.492188H3.28888V28.5209H44.9731V0.492188Z" fill="#E6E6E6"/>
<path d="M39.7623 7.9668H8.49921V9.8354H39.7623V7.9668Z" fill="white"/>
<path d="M39.7623 13.5723H8.49921V15.4409H39.7623V13.5723Z" fill="white"/>
<path d="M39.7623 19.1777H8.49921V21.0463H39.7623V19.1777Z" fill="white"/>
<path d="M62.6889 14.9736H21.0047V43.0024H62.6889V14.9736Z" fill="#6C63FF"/>
<path d="M57.4781 22.4482H26.215V24.3168H57.4781V22.4482Z" fill="white"/>
<path d="M57.4781 28.0537H26.215V29.9223H57.4781V28.0537Z" fill="white"/>
<path d="M57.4781 33.6592H26.215V35.5278H57.4781V33.6592Z" fill="white"/>
<path d="M161.842 132.138H48.1992V55.8115H161.842V132.138ZM49.3708 56.8619V131.088H160.67V56.8619H49.3708Z" fill="#E6E6E6"/>
<path d="M104.985 113.518C116.936 113.518 126.624 104.832 126.624 94.1182C126.624 83.4039 116.936 74.7183 104.985 74.7183C93.0345 74.7183 83.3466 83.4039 83.3466 94.1182C83.3466 104.832 93.0345 113.518 104.985 113.518Z" fill="#6C63FF"/>
<path d="M113.971 92.4889H106.614V85.8929C106.614 85.4813 106.431 85.0865 106.107 84.7954C105.782 84.5043 105.342 84.3408 104.883 84.3408C104.423 84.3408 103.983 84.5043 103.658 84.7954C103.334 85.0865 103.151 85.4813 103.151 85.8929V92.4889H95.7942C95.3351 92.4889 94.8948 92.6524 94.5701 92.9435C94.2454 93.2346 94.063 93.6293 94.063 94.041C94.063 94.4526 94.2454 94.8474 94.5701 95.1385C94.8948 95.4295 95.3351 95.5931 95.7942 95.5931H103.151V102.189C103.151 102.601 103.334 102.995 103.658 103.287C103.983 103.578 104.423 103.741 104.883 103.741C105.342 103.741 105.782 103.578 106.107 103.287C106.431 102.995 106.614 102.601 106.614 102.189V95.5931H113.971C114.43 95.5931 114.87 95.4295 115.195 95.1385C115.52 94.8474 115.702 94.4526 115.702 94.041C115.702 93.6293 115.52 93.2346 115.195 92.9435C114.87 92.6524 114.43 92.4889 113.971 92.4889Z" fill="white"/>
<path d="M41.849 144.393H0.164734V172.421H41.849V144.393Z" fill="#E6E6E6"/>
<path d="M36.6381 151.867H5.37506V153.736H36.6381V151.867Z" fill="white"/>
<path d="M36.6381 157.473H5.37506V159.341H36.6381V157.473Z" fill="white"/>
<path d="M36.6381 163.078H5.37506V164.947H36.6381V163.078Z" fill="white"/>
</g>
<defs>
<filter id="filter0_b" x="-3.83527" y="-3.50781" width="322.27" height="221.674" filterUnits="userSpaceOnUse" color-interpolation-filters="sRGB">
<feFlood flood-opacity="0" result="BackgroundImageFix"/>
<feGaussianBlur in="BackgroundImage" stdDeviation="2"/>
<feComposite in2="SourceAlpha" operator="in" result="effect1_backgroundBlur"/>
<feBlend mode="normal" in="SourceGraphic" in2="effect1_backgroundBlur" result="shape"/>
</filter>
</defs>
</svg>
