<svg width="31" height="22" viewBox="0 0 31 22" fill="none" xmlns="http://www.w3.org/2000/svg">
<path fill-rule="evenodd" clip-rule="evenodd" d="M24.8226 8.43051C23.9687 3.93497 20.1639 0.560059 15.593 0.560059C11.964 0.560059 8.81208 2.69707 7.24242 5.8244C3.46273 6.24138 0.524292 9.56416 0.524292 13.5906C0.524292 17.9037 3.9022 21.4089 8.05866 21.4089H24.3831C27.8489 21.4089 30.6618 18.4901 30.6618 14.8937C30.6618 11.4536 28.0875 8.66506 24.8226 8.43051ZM24.3831 18.8028H8.05866C5.28348 18.8028 3.03575 16.4704 3.03575 13.5906C3.03575 10.9193 4.95705 8.69112 7.50614 8.41748L8.84977 8.27414L9.47764 7.03624C10.6706 4.65165 13.0062 3.16617 15.593 3.16617C18.883 3.16617 21.721 5.58985 22.3614 8.9387L22.7381 10.8933L24.6594 11.0366C26.6183 11.1669 28.1503 12.8739 28.1503 14.8937C28.1503 17.0437 26.4551 18.8028 24.3831 18.8028ZM13.7722 12.2875H10.5701L15.593 7.07533L20.616 12.2875H17.4138V16.1967H13.7722V12.2875Z" fill="#0C0B0B" fill-opacity="0.54"/>
</svg>
